Coordinates
version=1
nRows=17
nColumns=36
inDegrees=yes

Units are S.I. units (second, meters, Newtons, ...)
If the header above contains a line with 'inDegrees', this indicates whether rotational values are in degrees (yes) or radians (no).

endheader
time	pelvis_tilt	pelvis_list	pelvis_rotation	pelvis_tx	pelvis_ty	pelvis_tz	hip_flexion_r	hip_adduction_r	hip_rotation_r	knee_angle_r	knee_angle_r_beta	ankle_angle_r	subtalar_angle_r	mtp_angle_r	hip_flexion_l	hip_adduction_l	hip_rotation_l	knee_angle_l	knee_angle_l_beta	ankle_angle_l	subtalar_angle_l	mtp_angle_l	lumbar_extension	lumbar_bending	lumbar_rotation	arm_flex_r	arm_add_r	arm_rot_r	elbow_flex_r	pro_sup_r	arm_flex_l	arm_add_l	arm_rot_l	elbow_flex_l	pro_sup_l
      3.50000000	     -5.01829763	     -2.15800535	      1.87507951	      1.39951974	      1.37790968	     -0.34999964	     11.95023790	     -8.18067097	    -10.14544405	      2.11794683	      0.03696515	    -28.07158358	      3.28011740	     -7.49999987	     11.69206252	    -10.34295419	    -11.14060688	      1.63254227	      0.02849324	    -30.26074274	     -1.73075678	     -7.49999987	    -11.47677411	     -0.60601517	      0.72685349	     15.66596809	    -14.10560091	    -38.88723393	     16.44568233	     86.23242933	      9.86775850	    -15.51500887	    -21.27838965	      8.98735103	     87.26990171
      3.51666670	     -4.70041643	     -2.12089182	      1.71354640	      1.40887891	      1.36475569	     -0.35069274	     11.02196647	     -8.20429370	     -9.87671757	      2.41842663	      0.04220951	    -28.43072117	      3.22104820	     -7.49999987	     10.71506464	    -10.42449418	    -10.98226648	      1.79983795	      0.03141310	    -29.67879101	     -0.91907897	     -7.49999987	    -11.09674905	     -0.61661058	      0.59824230	     14.49858775	    -13.82690229	    -41.19855431	     15.53279574	     82.41924745	      8.17713514	    -14.88793205	    -21.60416193	      8.31921374	     83.95808676
      3.53333330	     -4.22431441	     -1.24577150	      1.69848210	      1.40172561	      1.34553542	     -0.34788504	     11.15200008	     -9.33623795	     -9.41981335	      3.98757100	      0.06959624	    -27.98021592	      3.57587518	     -7.49999987	     11.21730708	     -9.86857563	    -11.20182779	      4.19140358	      0.07315379	    -26.57312770	     -1.15747207	     -7.49999987	    -12.23218070	     -1.69687181	      0.32305928	     14.22873851	    -12.74479532	    -48.99347005	     16.34057097	     87.35344693	      8.39686162	    -14.83976951	    -24.44879632	      8.51875604	     88.56906491
      3.55000000	     -3.73067766	     -0.93103892	      1.70958151	      1.40574250	      1.32561524	     -0.34634878	     11.47687150	     -9.78234560	     -9.29927402	      6.44669932	      0.11251613	    -27.01342260	      3.12997783	     -7.49999987	     11.60699659	    -10.00614866	    -11.61840349	      6.97977225	      0.12182001	    -23.17011427	     -0.88782286	     -7.49999987	    -12.89445375	     -2.09483877	     -0.15168108	     14.48813743	    -12.17264374	    -52.45351604	     16.33836750	     87.21302401	      8.39778702	    -14.96547097	    -26.04711808	      8.51558056	     90.08718017
      3.56666670	     -3.71187008	     -1.18189487	      1.65358101	      1.40369121	      1.30281689	     -0.34721989	     12.21848651	     -9.62415921	     -9.13068134	      8.26262686	      0.14421004	    -25.66800418	      3.29452971	     -7.49999987	     12.14728037	    -10.82363462	    -12.18216210	      8.91633583	      0.15561942	    -22.48339771	     -0.39291528	     -7.49999987	    -12.87783850	     -1.90807903	     -0.67227772	     14.99003901	    -12.25581506	    -53.34215836	     15.98626472	     84.33286668	      8.91039315	    -15.18927138	    -26.35177998	      8.72814832	     87.36188847
      3.58333330	     -3.74018252	     -1.67544469	      1.32351514	      1.40880672	      1.27830476	     -0.34553249	     12.43364365	     -8.97415936	     -9.20657040	      9.29827559	      0.16228552	    -25.17957820	      3.51104213	     -7.49999987	     11.97966160	    -11.96747607	    -12.68122699	      9.83606745	      0.17167176	    -23.41181462	      0.03650646	     -7.49999987	    -12.42945875	     -1.57758464	     -0.33345287	     15.29023688	    -12.25925839	    -55.52208551	     15.89496189	     84.12325229	      9.57211560	    -15.45007534	    -27.23633986	      8.76283549	     88.44936505
      3.60000000	     -3.76919077	     -1.99227376	      0.89218242	      1.40652007	      1.24827336	     -0.34657589	     13.07736498	     -8.60515093	     -9.42497473	     10.67239471	      0.18626843	    -25.05017634	      3.36562880	     -7.49999987	     11.93512988	    -12.80918196	    -12.69945269	     10.82462868	      0.18892541	    -23.37628458	      0.38123572	     -7.49999987	    -12.41247310	     -1.25028393	     -0.38152446	     16.69917298	    -12.35049935	    -58.92619146	     16.08816504	     87.26054532	     10.77062256	    -15.62122101	    -29.14358347	      9.94101379	     93.22357497
      3.61666670	     -3.92193274	     -2.15436032	      1.06598390	      1.40651611	      1.21523793	     -0.34775914	     13.96698698	     -8.64792735	     -9.48209441	     12.36057311	      0.21573270	    -24.72639652	      3.10645951	     -7.49999987	     13.31411283	    -13.57882675	    -12.46776843	     13.83773684	      0.24151407	    -21.98652836	      0.14173901	     -7.49999987	    -12.73891341	     -1.10239174	     -0.85970827	     17.57827488	    -12.36809346	    -58.91223355	     16.74168984	     86.30355202	     12.05821445	    -15.76640259	    -28.66060777	     11.44529328	     92.33751583
      3.63333330	     -3.88137688	     -2.40007861	      0.96869854	      1.41332342	      1.17861712	     -0.34951814	     14.47297988	     -8.57545561	     -9.59293621	     14.42646994	      0.25178940	    -23.83131534	      2.97145635	     -7.49999987	     14.08476975	    -14.38981633	    -12.42733315	     16.64500000	      0.29051005	    -20.16396578	      0.08526385	     -7.49999987	    -12.53310704	     -0.95232426	     -1.01425800	     18.41369908	    -12.67253405	    -59.14999794	     16.25419186	     85.49510546	     13.70812112	    -16.34147632	    -25.31149593	     11.55813534	     93.10311917
      3.65000000	     -3.59301202	     -2.74885332	      1.12978451	      1.41649186	      1.13884097	     -0.34816542	     14.86426321	     -8.41837444	     -9.66123453	     17.24611001	      0.30100140	    -22.86497992	      2.67745528	     -7.49999987	     14.85624013	    -15.33638182	    -11.96543705	     19.75855606	      0.34485186	    -18.25892536	      0.11147933	     -7.49999987	    -12.80251386	     -0.76320349	     -1.45806737	     19.07308930	    -12.61215880	    -58.98390415	     16.62718272	     84.47782898	     15.11886886	    -16.84215343	    -24.47814381	     12.28118028	     92.12132428
      3.66666670	     -3.42284210	     -3.06588396	      1.00318575	      1.41395457	      1.09830878	     -0.34943296	     15.93364456	     -8.16495140	     -9.31457657	     20.27479461	      0.35386192	    -21.67564028	      2.39890466	     -7.49999987	     16.20472405	    -16.20324914	    -10.98572453	     23.36566353	      0.40780776	    -17.02893468	      0.07340006	     -7.49999987	    -13.15745370	     -0.72606400	     -1.33482897	     20.00154719	    -12.92574016	    -59.49399931	     16.63025455	     83.65959962	     17.10769491	    -17.37176853	    -21.25529777	     12.59610731	     92.33127152
      3.68333330	     -2.86663271	     -3.36711795	      0.93120349	      1.41724803	      1.06065311	     -0.34797104	     16.21341126	     -7.81953877	     -9.71842829	     22.91379736	      0.39992121	    -20.96981563	      2.16974252	     -7.49999987	     16.87413169	    -17.00871113	    -10.25366015	     26.35372720	      0.45995931	    -16.44293638	     -0.34840804	     -7.49999987	    -13.86509674	     -0.68060352	     -1.34696484	     21.29045290	    -12.95962923	    -59.21897950	     16.24779527	     83.02656976	     18.38965916	    -17.47711828	    -20.91117227	     13.19557153	     91.38443472
      3.70000000	     -2.65059580	     -3.61568922	      0.68069122	      1.41905339	      1.01789854	     -0.34705566	     16.56798120	     -7.51278420	     -9.95159374	     24.38732388	      0.42563910	    -21.08361466	      2.16682905	     -7.49999987	     17.22676846	    -17.54290729	    -10.36495138	     28.03465141	      0.48929697	    -17.40004244	     -0.15589207	     -7.49999987	    -14.19378633	     -0.69496274	     -1.15680508	     22.55563456	    -12.69007810	    -58.88768610	     17.17987486	     82.40824843	     19.61801475	    -17.51198652	    -20.55835690	     14.97617049	     90.49053013
      3.71666670	     -2.26219965	     -3.86646505	      0.39944734	      1.41719262	      0.96664183	     -0.35438275	     17.92898057	     -7.77609882	     -9.39686537	     28.59259688	      0.49903496	    -16.29054087	      1.34306849	     -7.49999987	     18.66452511	    -17.87945428	     -8.99317222	     32.24474612	      0.56277699	    -13.20502870	      0.12132955	     -7.49999987	    -15.32562733	     -0.30236022	     -1.11299497	     24.90928919	    -13.13507713	    -56.78134614	     16.65916078	     81.53270214	     20.93481434	    -17.68080654	    -18.09300814	     16.34282978	     89.20845954
      3.73333330	     -1.62394837	     -4.10445472	      0.34338744	      1.42214995	      0.92378996	     -0.35076244	     19.99063359	     -8.07611402	     -8.49707990	     35.87429404	      0.62612455	     -7.54233577	     -1.35206887	     -7.49999987	     20.25838448	    -18.55075426	     -7.69217988	     38.60796016	      0.67383602	     -3.86460748	      0.46190121	     -7.49999987	    -17.17615859	      0.18840173	     -1.74345329	     26.76129464	    -12.51339308	    -54.84806690	     18.44527243	     79.60740444	     21.78129128	    -18.11287791	    -16.89617743	     18.18969081	     86.44615594
      3.75000000	     -1.88377251	     -4.30585277	      0.18380434	      1.42876242	      0.87949198	     -0.35176043	     22.96261516	     -8.24343579	     -7.28379018	     44.37496640	      0.77448927	      3.67543371	     -4.39123934	     -7.49999987	     22.73464504	    -19.06961557	     -6.21722261	     45.97744389	      0.80245778	      8.33316288	      0.85391932	     -7.49999987	    -17.81317138	      0.46160219	     -1.72955094	     27.25619855	    -12.55063467	    -50.16456750	     18.82227651	     79.03174501	     22.25633824	    -18.47596832	    -13.07752129	     19.44992305	     85.64187623
      3.76666670	     -3.06289685	     -4.34072084	      0.04255180	      1.42959767	      0.83384210	     -0.35645773	     27.93612469	     -8.82387360	     -5.93611427	     54.12465293	      0.94465340	     14.38221406	     -6.27235749	     -7.49999987	     27.50499549	    -19.58310938	     -4.42518928	     54.92927817	      0.95869676	     20.69441531	      2.31820457	     -7.49999987	    -18.26388706	      0.57877463	     -1.85682471	     27.53285252	    -12.14258717	    -46.98789281	     20.40152492	     77.85969165	     22.67150161	    -18.46554584	    -11.82600367	     20.90597120	     84.26138434
